<?xml version="1.0" encoding="utf-8"?>
<!-- Generator: Adobe Illustrator 18.1.1, SVG Export Plug-In . SVG Version: 6.00 Build 0)  -->
<svg version="1.1" baseProfile="basic" id="Layer_1"
	 xmlns="http://www.w3.org/2000/svg" xmlns:xlink="http://www.w3.org/1999/xlink" x="0px" y="0px" viewBox="0 0 800 177.7"
	 xml:space="preserve">
<g>
	<g>
		<path fill="#00263D" d="M15.7,147v5H5.9v6.1h8.4v4.7H5.9v10.5H0V147H15.7z"/>
		<path fill="#00263D" d="M34.5,166.1c0,4.1-2.9,7.5-8.5,7.5c-5.7,0-8.5-3.4-8.5-7.5V160c0-4.1,2.9-7.6,8.5-7.6
			c5.7,0,8.5,3.4,8.5,7.6V166.1z M23,165.9c0,2.4,1,3.6,3,3.6c2,0,3-1.2,3-3.6v-5.7c0-2.5-1-3.7-3-3.7c-2.1,0-3,1.2-3,3.7V165.9z"/>
		<path fill="#00263D" d="M50.3,158c-0.5-0.3-1.2-0.5-1.9-0.5c-2.4,0-3.6,1.6-4,4.5v11.2h-5.5v-20.5h4.8l0.2,3.1h0.1
			c1.2-2.5,2.8-3.4,4.7-3.4c0.8,0,1.7,0.2,2.2,0.5L50.3,158z"/>
		<path fill="#00263D" d="M60.3,157.4c1.4-3,3.9-5,7.6-5c5.2,0,7.1,3.1,7.1,7v9.3c0,0.8,0.4,1.3,1.2,1.3h0.6v3.1
			c-0.8,0.2-1.6,0.4-2.5,0.4c-2,0-3.1-0.7-3.9-1.7c-1.4,1.2-3.1,1.8-5.1,1.8c-3.7,0-5.8-2.4-5.8-5.7c0-3.5,2-6.7,8.8-6.7h1.1v-1.8
			c0-2.1-0.8-2.8-2.4-2.8c-1.3,0-2.6,0.8-3.5,2.6L60.3,157.4z M69.6,168.8v-4h-1.1c-2.7,0-3.5,1-3.5,2.6c0,1.9,0.8,2.5,2,2.5
			C68.1,169.9,68.9,169.5,69.6,168.8z"/>
		<path fill="#00263D" d="M91.8,171.7L91.8,171.7l-0.3,1.6h-4.9V147h5.5v7.2h0.1c1.2-1.2,2.9-1.8,5-1.8c4.1,0,6.3,3,6.3,8v5.3
			c0,4.9-2.3,7.9-6.7,7.9C94.8,173.6,93.1,173,91.8,171.7z M92.2,167.8c0.7,0.9,1.6,1.4,3,1.4c1.9,0,2.8-1,2.8-3.6v-5.1
			c0-2.5-0.9-3.6-2.7-3.6c-1.4,0-2.5,0.7-3.1,1.5V167.8z"/>
		<path fill="#00263D" d="M112.7,164v1.8c0,2.5,1.1,3.7,3.3,3.7c1.6,0,2.6-0.8,3.4-2.6l3.9,1.4c-1.2,3.6-3.6,5.3-7.9,5.3
			c-5.3,0-8.2-3.3-8.2-7.6V160c0-4.1,2.7-7.5,8.2-7.5c5.1,0,7.9,3.5,7.9,7.8v3.8H112.7z M112.7,160.8h5.6v-1.2c0-2.1-1-3.1-2.8-3.1
			c-2,0-2.8,1.1-2.8,3.2V160.8z"/>
		<path fill="#00263D" d="M137.7,157.7h-4.2v9.4c0,1.6,0.9,2.4,2.3,2.4c0.5,0,1-0.1,1.6-0.2l0.4,3.4c-1.1,0.6-2.4,0.9-4,0.9
			c-4.2,0-5.8-2.4-5.8-6.8V158l-2.3-0.7v-3.6l2.7-0.2l1.4-4.4h3.8v4.5h4.2V157.7z"/>
		<path fill="#00263D" d="M152.1,157.7h-4.2v9.4c0,1.6,0.9,2.4,2.3,2.4c0.5,0,1-0.1,1.6-0.2l0.4,3.4c-1.1,0.6-2.4,0.9-4,0.9
			c-4.2,0-5.8-2.4-5.8-6.8V158l-2.3-0.7v-3.6l2.7-0.2l1.4-4.4h3.8v4.5h4.2V157.7z"/>
		<path fill="#00263D" d="M160.9,164v1.8c0,2.5,1.1,3.7,3.3,3.7c1.6,0,2.6-0.8,3.4-2.6l3.9,1.4c-1.2,3.6-3.6,5.3-7.9,5.3
			c-5.3,0-8.2-3.3-8.2-7.6V160c0-4.1,2.7-7.5,8.2-7.5c5.1,0,7.9,3.5,7.9,7.8v3.8H160.9z M160.9,160.8h5.6v-1.2c0-2.1-1-3.1-2.8-3.1
			c-2,0-2.8,1.1-2.8,3.2V160.8z"/>
		<path fill="#00263D" d="M187,158c-0.5-0.3-1.2-0.5-1.9-0.5c-2.4,0-3.6,1.6-4,4.5v11.2h-5.5v-20.5h4.8l0.2,3.1h0.1
			c1.2-2.5,2.8-3.4,4.7-3.4c0.8,0,1.7,0.2,2.2,0.5L187,158z"/>
		<path fill="#00263D" d="M202.9,172.1L202.9,172.1l-0.1,5.6h-5.5v-24.9h4.9l0.1,1.8h0.1c1.4-1.4,3.2-2.2,5.5-2.2c4.1,0,6.3,3,6.3,8
			v5.3c0,4.9-2.3,7.9-6.7,7.9C205.7,173.6,204.1,173.1,202.9,172.1z M202.8,167.8c0.6,0.9,1.6,1.4,3,1.4c1.9,0,2.8-1,2.8-3.6v-5.1
			c0-2.5-0.9-3.6-2.7-3.6c-1.4,0-2.5,0.7-3.1,1.5V167.8z"/>
		<path fill="#00263D" d="M224.4,147v26.3h-5.5V147H224.4z"/>
		<path fill="#00263D" d="M229.6,157.4c1.4-3,3.9-5,7.6-5c5.2,0,7.1,3.1,7.1,7v9.3c0,0.8,0.4,1.3,1.2,1.3h0.6v3.1
			c-0.8,0.2-1.6,0.4-2.5,0.4c-2,0-3.1-0.7-3.9-1.7c-1.4,1.2-3.1,1.8-5.1,1.8c-3.7,0-5.8-2.4-5.8-5.7c0-3.5,2-6.7,8.8-6.7h1.1v-1.8
			c0-2.1-0.8-2.8-2.4-2.8c-1.3,0-2.6,0.8-3.5,2.6L229.6,157.4z M238.8,168.8v-4h-1.1c-2.7,0-3.5,1-3.5,2.6c0,1.9,0.8,2.5,2,2.5
			C237.3,169.9,238.1,169.5,238.8,168.8z"/>
		<path fill="#00263D" d="M255.1,173.3h-5.5v-20.5h4.9l0.1,1.8h0.1c1.4-1.4,3.2-2.2,5.4-2.2c4.1,0,6.4,3,6.4,8v12.9H261v-12.8
			c0-2.5-0.9-3.6-2.7-3.6c-1.4,0-2.5,0.6-3.1,1.6V173.3z"/>
		<path fill="#00263D" d="M275.9,164v1.8c0,2.5,1.1,3.7,3.3,3.7c1.6,0,2.6-0.8,3.4-2.6l3.9,1.4c-1.2,3.6-3.6,5.3-7.9,5.3
			c-5.3,0-8.2-3.3-8.2-7.6V160c0-4.1,2.7-7.5,8.2-7.5c5.1,0,7.9,3.5,7.9,7.8v3.8H275.9z M275.9,160.8h5.6v-1.2c0-2.1-1-3.1-2.8-3.1
			c-2,0-2.8,1.1-2.8,3.2V160.8z"/>
		<path fill="#00263D" d="M301,157.7h-4.2v9.4c0,1.6,0.9,2.4,2.3,2.4c0.5,0,1-0.1,1.6-0.2l0.4,3.4c-1.1,0.6-2.4,0.9-4,0.9
			c-4.2,0-5.8-2.4-5.8-6.8V158l-2.3-0.7v-3.6l2.7-0.2l1.4-4.4h3.8v4.5h4.2V157.7z"/>
		<path fill="#00263D" d="M303.1,148.4c0-0.2,0.1-0.3,0.3-0.3h4c0.2,0,0.3,0.1,0.3,0.3v0.9c0,0.2-0.1,0.3-0.3,0.3h-1.2v7.4
			c0,0.2-0.1,0.3-0.3,0.3h-1c-0.2,0-0.3-0.1-0.3-0.3v-7.4h-1.2c-0.2,0-0.3-0.1-0.3-0.3V148.4z"/>
		<path fill="#00263D" d="M311.7,154.9c-0.1,0-0.2-0.1-0.3-0.2l-1.3-3.2v5.6c0,0.2-0.1,0.3-0.3,0.3h-1c-0.2,0-0.3-0.1-0.3-0.3v-8.6
			c0-0.2,0.1-0.3,0.3-0.3h0.9c0.2,0,0.3,0.1,0.4,0.2l1.6,3.9l1.6-3.9c0.1-0.1,0.2-0.2,0.4-0.2h0.9c0.2,0,0.3,0.1,0.3,0.3v8.6
			c0,0.2-0.1,0.3-0.3,0.3h-1c-0.2,0-0.3-0.1-0.3-0.3v-5.6l-1.3,3.2C311.9,154.8,311.8,154.9,311.7,154.9z"/>
		<path fill="#00263D" d="M327.5,155.4c2.9,0,5.1,2.2,5.1,5.2c0,2.9-2.2,5.1-5.1,5.1c-2.9,0-5.2-2.2-5.2-5.1
			C322.3,157.6,324.6,155.4,327.5,155.4z"/>
		<path fill="#00263D" d="M360.4,155.7c0,5.3-2.8,8.6-7.9,8.6h-4v8.9h-5.9V147h9.5C357.4,147,360.4,150.3,360.4,155.7z M348.5,159.9
			h3.4c1.8,0,2.7-1.2,2.7-4.1c0-2.9-0.8-4-2.7-4h-3.4V159.9z"/>
		<path fill="#00263D" d="M380,166.1c0,4.1-2.9,7.5-8.5,7.5c-5.7,0-8.5-3.4-8.5-7.5V160c0-4.1,2.9-7.6,8.5-7.6
			c5.7,0,8.5,3.4,8.5,7.6V166.1z M368.5,165.9c0,2.4,1,3.6,3,3.6c2,0,3-1.2,3-3.6v-5.7c0-2.5-1-3.7-3-3.7c-2.1,0-3,1.2-3,3.7V165.9z
			"/>
		<path fill="#00263D" d="M395.3,152.8h5.5v20.5h-4.9l-0.2-1.7h-0.1c-1.4,1.4-3.2,2.1-5.4,2.1c-4,0-6.3-3-6.3-7.9v-12.9h5.5v13
			c0,2.4,0.9,3.5,2.7,3.5c1.4,0,2.5-0.7,3.1-1.5V152.8z"/>
		<path fill="#00263D" d="M417.3,158c-0.5-0.3-1.2-0.5-1.9-0.5c-2.4,0-3.6,1.6-4,4.5v11.2h-5.5v-20.5h4.8l0.2,3.1h0.1
			c1.2-2.5,2.8-3.4,4.7-3.4c0.8,0,1.7,0.2,2.2,0.5L417.3,158z"/>
		<path fill="#00263D" d="M438.5,152.8h5.5v20.5h-4.9l-0.2-1.7h-0.1c-1.4,1.4-3.2,2.1-5.4,2.1c-4,0-6.3-3-6.3-7.9v-12.9h5.5v13
			c0,2.4,0.9,3.5,2.7,3.5c1.4,0,2.5-0.7,3.1-1.5V152.8z"/>
		<path fill="#00263D" d="M454.6,173.3h-5.5v-20.5h4.9l0.1,1.8h0.1c1.4-1.4,3.2-2.2,5.4-2.2c4.1,0,6.4,3,6.4,8v12.9h-5.5v-12.8
			c0-2.5-0.9-3.6-2.7-3.6c-1.4,0-2.5,0.6-3.1,1.6V173.3z"/>
		<path fill="#00263D" d="M475.4,164v1.8c0,2.5,1.1,3.7,3.3,3.7c1.6,0,2.6-0.8,3.4-2.6l3.9,1.4c-1.2,3.6-3.6,5.3-7.9,5.3
			c-5.3,0-8.2-3.3-8.2-7.6V160c0-4.1,2.7-7.5,8.2-7.5c5.1,0,7.9,3.5,7.9,7.8v3.8H475.4z M475.4,160.8h5.6v-1.2c0-2.1-1-3.1-2.8-3.1
			c-2,0-2.8,1.1-2.8,3.2V160.8z"/>
		<path fill="#00263D" d="M512.2,173.3h-5.5v-12.8c0-2.6-0.9-3.5-2.3-3.5c-1.1,0-2.1,0.8-2.7,1.8v14.5h-5.5v-20.5h4.9v2h0.1
			c1.2-1.6,3-2.4,5-2.4c2.1,0,3.8,0.9,4.7,2.7c1.3-1.7,3.2-2.7,5.5-2.7c4,0,6.2,2.4,6.2,8v12.9h-5.5v-12.8c0-2.3-0.7-3.5-2.4-3.5
			c-1.5,0-2.5,1-2.5,3.5V173.3z"/>
		<path fill="#00263D" d="M532.2,164v1.8c0,2.5,1.1,3.7,3.3,3.7c1.6,0,2.6-0.8,3.4-2.6l3.9,1.4c-1.2,3.6-3.6,5.3-7.9,5.3
			c-5.3,0-8.2-3.3-8.2-7.6V160c0-4.1,2.7-7.5,8.2-7.5c5.1,0,7.9,3.5,7.9,7.8v3.8H532.2z M532.2,160.8h5.6v-1.2c0-2.1-1-3.1-2.8-3.1
			c-2,0-2.8,1.1-2.8,3.2V160.8z"/>
		<path fill="#00263D" d="M552.6,153.6v19.7h-5.5v-19.7H552.6z M552.3,147v4.2h-4.8V147H552.3z"/>
		<path fill="#00263D" d="M563.9,147v26.3h-5.5V147H563.9z"/>
		<path fill="#00263D" d="M575.2,147v26.3h-5.5V147H575.2z"/>
		<path fill="#00263D" d="M585.4,164v1.8c0,2.5,1.1,3.7,3.3,3.7c1.6,0,2.6-0.8,3.4-2.6l3.9,1.4c-1.2,3.6-3.6,5.3-7.9,5.3
			c-5.3,0-8.2-3.3-8.2-7.6V160c0-4.1,2.7-7.5,8.2-7.5c5.1,0,7.9,3.5,7.9,7.8v3.8H585.4z M585.4,160.8h5.6v-1.2c0-2.1-1-3.1-2.8-3.1
			c-2,0-2.8,1.1-2.8,3.2V160.8z"/>
		<path fill="#00263D" d="M611,152.8h5.5v20.5h-4.9l-0.2-1.7h-0.1c-1.4,1.4-3.2,2.1-5.4,2.1c-4,0-6.3-3-6.3-7.9v-12.9h5.5v13
			c0,2.4,0.9,3.5,2.7,3.5c1.4,0,2.5-0.7,3.1-1.5V152.8z"/>
		<path fill="#00263D" d="M633,158c-0.5-0.3-1.2-0.5-1.9-0.5c-2.4,0-3.6,1.6-4,4.5v11.2h-5.5v-20.5h4.8l0.2,3.1h0.1
			c1.2-2.5,2.8-3.4,4.7-3.4c0.8,0,1.7,0.2,2.2,0.5L633,158z"/>
		<path fill="#00263D" d="M641.5,164v1.8c0,2.5,1.1,3.7,3.3,3.7c1.6,0,2.6-0.8,3.4-2.6l3.9,1.4c-1.2,3.6-3.6,5.3-7.9,5.3
			c-5.3,0-8.2-3.3-8.2-7.6V160c0-4.1,2.7-7.5,8.2-7.5c5.1,0,7.9,3.5,7.9,7.8v3.8H641.5z M641.5,160.8h5.6v-1.2c0-2.1-1-3.1-2.8-3.1
			c-2,0-2.8,1.1-2.8,3.2V160.8z"/>
		<path fill="#00263D" d="M667.9,172.1L667.9,172.1l-0.1,5.6h-5.5v-24.9h4.9l0.1,1.8h0.1c1.4-1.4,3.2-2.2,5.5-2.2c4.1,0,6.3,3,6.3,8
			v5.3c0,4.9-2.3,7.9-6.7,7.9C670.7,173.6,669.1,173.1,667.9,172.1z M667.8,167.8c0.6,0.9,1.6,1.4,3,1.4c1.9,0,2.8-1,2.8-3.6v-5.1
			c0-2.5-0.9-3.6-2.7-3.6c-1.4,0-2.5,0.7-3.1,1.5V167.8z"/>
		<path fill="#00263D" d="M689.4,147v26.3h-5.5V147H689.4z"/>
		<path fill="#00263D" d="M694.6,157.4c1.4-3,3.9-5,7.6-5c5.2,0,7.1,3.1,7.1,7v9.3c0,0.8,0.4,1.3,1.2,1.3h0.6v3.1
			c-0.8,0.2-1.6,0.4-2.5,0.4c-2,0-3.1-0.7-3.9-1.7c-1.4,1.2-3.1,1.8-5.1,1.8c-3.7,0-5.8-2.4-5.8-5.7c0-3.5,2-6.7,8.8-6.7h1.1v-1.8
			c0-2.1-0.8-2.8-2.4-2.8c-1.3,0-2.6,0.8-3.5,2.6L694.6,157.4z M703.9,168.8v-4h-1.1c-2.7,0-3.5,1-3.5,2.6c0,1.9,0.8,2.5,2,2.5
			C702.3,169.9,703.2,169.5,703.9,168.8z"/>
		<path fill="#00263D" d="M720.1,173.3h-5.5v-20.5h4.9l0.1,1.8h0.1c1.4-1.4,3.2-2.2,5.4-2.2c4.1,0,6.4,3,6.4,8v12.9H726v-12.8
			c0-2.5-0.9-3.6-2.7-3.6c-1.4,0-2.5,0.6-3.1,1.6V173.3z"/>
		<path fill="#00263D" d="M741,164v1.8c0,2.5,1.1,3.7,3.3,3.7c1.6,0,2.6-0.8,3.4-2.6l3.9,1.4c-1.2,3.6-3.6,5.3-7.9,5.3
			c-5.3,0-8.2-3.3-8.2-7.6V160c0-4.1,2.7-7.5,8.2-7.5c5.1,0,7.9,3.5,7.9,7.8v3.8H741z M744.4,147l2,4.5h-4.1l-3.9-4.5H744.4z
			 M741,160.8h5.6v-1.2c0-2.1-1-3.1-2.8-3.1c-2,0-2.8,1.1-2.8,3.2V160.8z"/>
		<path fill="#00263D" d="M766,157.7h-4.2v9.4c0,1.6,0.9,2.4,2.3,2.4c0.5,0,1-0.1,1.6-0.2l0.4,3.4c-1.1,0.6-2.4,0.9-4,0.9
			c-4.2,0-5.8-2.4-5.8-6.8V158l-2.3-0.7v-3.6l2.7-0.2l1.4-4.4h3.8v4.5h4.2V157.7z"/>
		<path fill="#00263D" d="M774.8,164v1.8c0,2.5,1.1,3.7,3.3,3.7c1.6,0,2.6-0.8,3.4-2.6l3.9,1.4c-1.2,3.6-3.6,5.3-7.9,5.3
			c-5.3,0-8.2-3.3-8.2-7.6V160c0-4.1,2.7-7.5,8.2-7.5c5.1,0,7.9,3.5,7.9,7.8v3.8H774.8z M774.8,160.8h5.6v-1.2c0-2.1-1-3.1-2.8-3.1
			c-2,0-2.8,1.1-2.8,3.2V160.8z"/>
		<path fill="#00263D" d="M791.2,154.9c-0.1,0-0.2-0.1-0.3-0.2l-1.3-3.2v5.6c0,0.2-0.1,0.3-0.3,0.3h-1c-0.2,0-0.3-0.1-0.3-0.3v-8.6
			c0-0.2,0.1-0.3,0.3-0.3h0.9c0.2,0,0.3,0.1,0.4,0.2l1.6,3.9l1.6-3.9c0.1-0.1,0.2-0.2,0.4-0.2h0.9c0.2,0,0.3,0.1,0.3,0.3v8.6
			c0,0.2-0.1,0.3-0.3,0.3h-1c-0.2,0-0.3-0.1-0.3-0.3v-5.6l-1.3,3.2C791.4,154.8,791.3,154.9,791.2,154.9z"/>
		<path fill="#00263D" d="M798.8,156c0.2,0,0.3,0,0.5,0c0.2,0,0.3,0,0.4-0.1c0.2,0,0.3,0,0.3,0.2v0.8c0,0.1,0,0.2-0.1,0.2
			c0,0-0.1,0.1-0.2,0.1c-0.1,0-0.3,0.1-0.5,0.1c-0.2,0-0.4,0-0.7,0c-0.5,0-1-0.1-1.4-0.2s-0.7-0.4-1-0.8s-0.4-0.8-0.5-1.5
			c-0.1-0.6-0.2-1.4-0.2-2.3c0-0.9,0.1-1.7,0.2-2.3c0.1-0.6,0.3-1.1,0.5-1.4s0.6-0.6,0.9-0.8c0.4-0.1,0.8-0.2,1.4-0.2
			c0.2,0,0.4,0,0.7,0c0.2,0,0.4,0.1,0.5,0.1c0.1,0,0.2,0.1,0.2,0.1c0,0,0.1,0.1,0.1,0.2v0.8c0,0.2-0.1,0.3-0.3,0.2
			c-0.1,0-0.2,0-0.4-0.1c-0.2,0-0.3,0-0.5,0c-0.3,0-0.6,0-0.8,0.1c-0.2,0.1-0.4,0.3-0.5,0.5c-0.1,0.2-0.2,0.6-0.3,1
			c-0.1,0.4-0.1,1-0.1,1.6c0,0.7,0,1.2,0.1,1.6c0.1,0.4,0.2,0.8,0.3,1c0.1,0.2,0.3,0.4,0.5,0.5S798.4,156,798.8,156z"/>
	</g>
	<g>
		<path fill="#00263D" d="M748.1,34.1c0-0.2,0.1-0.3,0.3-0.3h4c0.2,0,0.3,0.1,0.3,0.3v0.9c0,0.2-0.1,0.3-0.3,0.3h-1.2v7.4
			c0,0.2-0.1,0.3-0.3,0.3h-1c-0.2,0-0.3-0.1-0.3-0.3v-7.4h-1.2c-0.2,0-0.3-0.1-0.3-0.3V34.1z"/>
		<path fill="#00263D" d="M756.6,40.5c-0.1,0-0.2-0.1-0.3-0.2l-1.3-3.2v5.6c0,0.2-0.1,0.3-0.3,0.3h-1c-0.2,0-0.3-0.1-0.3-0.3v-8.6
			c0-0.2,0.1-0.3,0.3-0.3h0.9c0.2,0,0.3,0.1,0.4,0.2l1.6,3.9l1.6-3.9c0.1-0.1,0.2-0.2,0.4-0.2h0.9c0.2,0,0.3,0.1,0.3,0.3v8.6
			c0,0.2-0.1,0.3-0.3,0.3h-1c-0.2,0-0.3-0.1-0.3-0.3v-5.6l-1.3,3.2C756.9,40.4,756.8,40.5,756.6,40.5z"/>
		<path fill="#00263D" d="M751.6,52.1c-0.1,0-0.2-0.1-0.3-0.2l-1.3-3.2v5.6c0,0.2-0.1,0.3-0.3,0.3h-1c-0.2,0-0.3-0.1-0.3-0.3v-8.6
			c0-0.2,0.1-0.3,0.3-0.3h0.9c0.2,0,0.3,0.1,0.4,0.2l1.6,3.9l1.6-3.9c0.1-0.1,0.2-0.2,0.4-0.2h0.9c0.2,0,0.3,0.1,0.3,0.3v8.6
			c0,0.2-0.1,0.3-0.3,0.3h-1c-0.2,0-0.3-0.1-0.3-0.3v-5.6l-1.3,3.2C751.8,52,751.7,52.1,751.6,52.1z"/>
		<path fill="#00263D" d="M759.2,53.2c0.2,0,0.3,0,0.5,0c0.2,0,0.3,0,0.4-0.1c0.2,0,0.3,0,0.3,0.2v0.8c0,0.1,0,0.2-0.1,0.2
			c0,0-0.1,0.1-0.2,0.1c-0.1,0-0.3,0.1-0.5,0.1c-0.2,0-0.4,0-0.7,0c-0.5,0-1-0.1-1.4-0.2s-0.7-0.4-1-0.8c-0.2-0.4-0.4-0.8-0.5-1.5
			c-0.1-0.6-0.2-1.4-0.2-2.3c0-0.9,0.1-1.7,0.2-2.3c0.1-0.6,0.3-1.1,0.5-1.4c0.2-0.4,0.6-0.6,0.9-0.8c0.4-0.1,0.8-0.2,1.4-0.2
			c0.2,0,0.4,0,0.7,0c0.2,0,0.4,0.1,0.5,0.1c0.1,0,0.2,0.1,0.2,0.1c0,0,0.1,0.1,0.1,0.2v0.8c0,0.2-0.1,0.3-0.3,0.2
			c-0.1,0-0.2,0-0.4-0.1c-0.2,0-0.3,0-0.5,0c-0.3,0-0.6,0-0.8,0.1c-0.2,0.1-0.4,0.3-0.5,0.5c-0.1,0.2-0.2,0.6-0.3,1
			c-0.1,0.4-0.1,1-0.1,1.6c0,0.7,0,1.2,0.1,1.6c0.1,0.4,0.2,0.8,0.3,1c0.1,0.2,0.3,0.4,0.5,0.5C758.6,53.2,758.9,53.2,759.2,53.2z"
			/>
	</g>
	<path fill="#00263D" d="M683.6,129.1c10.4,0,19-3.8,23.5-14.1h1.9c3.6,10.6,11.4,14.1,19.9,14.1c8.5,0,17.5-4,23.4-11.4l-0.9-2.3
		c-4.7,1.3-10.1-0.6-10.1-6.3V68.5c0-25.3-19-38.4-39.5-38.4c-13.5,0-27.5,5.5-37.2,17.1l4.4,5.1c5.3-5.1,12.9-7.4,18.8-7.4
		c10.6,0,19.7,8.4,19.7,22.6c-34,5.1-49.2,18.6-49.2,38.9C658.4,118.9,667.3,129.1,683.6,129.1z M699.9,110.3
		c-5.7,0-8.4-5.1-8.4-11.4c0-7.8,5.7-19.7,16-23.2v25.6C707.5,107.1,704.7,110.3,699.9,110.3z M589.2,126.5h44.2v-1.9
		c-4.2-6.5-5.1-16.1-5.1-24.7v-22c0-13.5,6.1-19.4,15-19.4c4.2,0,8.9,1.1,13.9,3.4l1.1-1.9l1.9-29.4c-15-3.2-27.3,6.1-31.5,23.4
		h-0.4l-1.9-21.8h-1.7L587.5,45v1.5c6.1,6.6,6.8,13.7,6.8,23.7v29.6c0,8.5-0.9,18.2-5.1,24.7V126.5z M512.3,126.5h44.2v-1.9
		c-4.2-6.5-5.1-16.1-5.1-24.7v-22c0-13.5,6.1-19.4,15-19.4c4.2,0,8.9,1.1,13.9,3.4l1.1-1.9l1.9-29.4c-15-3.2-27.3,6.1-31.5,23.4
		h-0.4l-1.9-21.8h-1.7L510.6,45v1.5c6.1,6.6,6.8,13.7,6.8,23.7v29.6c0,8.5-0.9,18.2-5.1,24.7V126.5z M448.5,67.4
		c-1.9-14.8,2.5-28.7,11.6-28.7c10.1,0,13.5,12.5,14.1,24.1L448.5,67.4z M465.4,129.1c20.5,0,34.9-11.4,44.2-34.9l-3.8-2.7
		c-7.8,8.2-16.7,12.3-24.3,12.3c-17.8,0-27.9-13.9-31.7-28.9l56.4-5.5c0-23.4-15.6-39.3-38.2-39.3C440,30.2,422,53.4,422,81.5
		C422,108.6,438.3,129.1,465.4,129.1z M399.5,129.1c8.9,0,18.4-3.6,26-10.8l-2.3-4.2c-2.3,0.8-4.4,1.1-6.5,1.1
		c-7.8,0-13.5-6.1-13.5-19V43.9H425l1.5-10.8h-23.2V8.4h-4.9C389.7,22,379.2,31,361,33v1.9c5.7,2.5,8,7.6,8,18v43.3
		C369,117.7,383.4,129.1,399.5,129.1z M263,126.5h44.2v-1.9c-4.2-6.5-5.1-16.1-5.1-24.7V65.1c0-9.7,4.7-15.2,10.4-15.2
		c5.9,0,9.9,3.4,9.9,13.3v36.6c0,8.5-0.9,18.2-5.1,24.7v1.9h44.2v-1.9c-4.2-6.5-5.1-16.1-5.1-24.7V60.4c0-17.3-10.4-30.2-27.7-30.2
		c-12.9,0-21.6,7.6-25.8,19.2h-0.8l-1.9-17.3h-1.7L261.3,45v1.5c6.1,6.6,6.8,13.7,6.8,23.7v29.6c0,8.5-0.9,18.2-5.1,24.7V126.5z
		 M210.6,120.4c-8.2,0-12.5-9.7-12.5-40.6c0-31.3,4-40.8,12.2-40.8c8.4-0.2,12.5,9.7,12.5,40.8C222.8,110.9,219,120.4,210.6,120.4z
		 M210.4,129.1c28.9,0,48-21.6,48-49.4c0-28.9-20.9-49.6-48-49.6c-26.2,0-47.9,19.6-47.9,49.6C162.6,106.3,180.8,129.1,210.4,129.1z
		 M88.7,55.4V7.6c16.7,0,25.4,4.9,25.4,23.5C114.1,45.2,109,55.4,88.7,55.4z M88.7,118.9V63c21.6,0,30,8,30,27.7
		C118.7,113.4,109.2,118.9,88.7,118.9z M45.2,126.5h61.9c24.7,0,48.8-8.7,48.8-35.7c0-16.3-12-27.5-33.6-31v-1.7
		c19.2-3.6,27.3-13.1,27.3-27.9C149.7,8.4,130.5,0,107.1,0H45.2v1.9c4.7,6.5,7,16.1,7,22.8v75.2c0,8.5-2.3,18.2-7,24.7V126.5z"/>
</g>
</svg>
