<?xml version="1.0" encoding="UTF-8"?>
<svg width="600px" height="40px" viewBox="0 0 600 40" version="1.1" xmlns="http://www.w3.org/2000/svg" xmlns:xlink="http://www.w3.org/1999/xlink">
    <title>Waves_Mobile</title>
    <g id="SYMBOLS" stroke="none" stroke-width="1" fill="none" fill-rule="evenodd">
        <g id="Waves_Mobile" fill="#76C4D5">
            <path d="M600,40 L600,0 L542.71875,22.9310345 C532.96875,26.8534483 517.03125,26.8534483 507.28125,22.9310345 L467.71875,7.06896552 C457.96875,3.14655172 442.03125,3.14655172 432.28125,7.06896552 L392.71875,22.9310345 C382.96875,26.8534483 367.03125,26.8534483 357.28125,22.9310345 L317.71875,7.06896552 C307.96875,3.14655172 292.03125,3.14655172 282.28125,7.06896552 L242.71875,22.9310345 C232.96875,26.8534483 217.03125,26.8534483 207.28125,22.9310345 L167.71875,7.11206897 C157.96875,3.18965517 142.03125,3.18965517 132.28125,7.11206897 L92.71875,22.9310345 C82.96875,26.8534483 67.03125,26.8534483 57.28125,22.9310345 L0,0 L0,40 L600,40 Z" id="Path"></path>
        </g>
    </g>
</svg>