<?xml version="1.0" encoding="UTF-8"?>
<svg width="1920px" height="93px" viewBox="0 0 1920 93" version="1.1" xmlns="http://www.w3.org/2000/svg" xmlns:xlink="http://www.w3.org/1999/xlink">
    <title>Waves_Desktop</title>
    <g id="SYMBOLS" stroke="none" stroke-width="1" fill="none" fill-rule="evenodd">
        <g id="Waves_Desktop" fill="#76C4D5">
            <path d="M1920,92.8 L1920,0 L1736.7,53.2 C1705.5,62.3 1654.5,62.3 1623.3,53.2 L1496.7,16.4 C1465.5,7.3 1414.5,7.3 1383.3,16.4 L1256.7,53.2 C1225.5,62.3 1174.5,62.3 1143.3,53.2 L1016.7,16.4 C985.5,7.3 934.5,7.3 903.3,16.4 L776.7,53.2 C745.5,62.3 694.5,62.3 663.3,53.2 L536.7,16.5 C505.5,7.4 454.5,7.4 423.3,16.5 L296.7,53.2 C265.5,62.3 214.5,62.3 183.3,53.2 L0,0 L0,92.8 L1920,92.8 Z" id="Path"></path>
        </g>
    </g>
</svg>